<svg width="52" height="61" viewBox="0 0 52 61" fill="none" xmlns="http://www.w3.org/2000/svg">
<path d="M0 16.1738H52L43.5775 60.1738H9.52113L0 16.1738Z" fill="#272727"/>
<path d="M26 0.826172C34.4942 0.826172 41.3798 7.71183 41.3799 16.2061C41.3799 24.7004 34.4943 31.5869 26 31.5869C17.5057 31.5869 10.6201 24.7004 10.6201 16.2061C10.6202 7.71183 17.5058 0.826172 26 0.826172ZM26 8.88281C21.9551 8.88281 18.6758 12.1621 18.6758 16.207C18.676 20.2517 21.9552 23.5303 26 23.5303C30.0448 23.5303 33.324 20.2517 33.3242 16.207C33.3242 12.1621 30.0449 8.88281 26 8.88281Z" fill="#272727"/>
</svg>



