<svg width="126" height="76" viewBox="0 0 126 76" fill="none" xmlns="http://www.w3.org/2000/svg">
<rect x="1.5" y="1.5" width="123" height="73" rx="36.5" stroke="white" stroke-width="3"/>
<g clip-path="url(#clip0_0_1)">
<path d="M62.5 14.5C67.2946 14.5 70.8523 14.5003 73.6484 14.7715L73.6475 14.7725C76.2615 15.0256 78.1598 15.5116 79.7422 16.4229L80.0547 16.6104L80.3799 16.8213C81.9903 17.8976 83.3566 19.3027 84.3887 20.9453L84.5771 21.2578C85.4886 22.8403 85.9751 24.7383 86.2285 27.3516L86.3174 28.4375C86.4992 31.057 86.5 34.3049 86.5 38.5C86.5 43.2946 86.4997 46.8523 86.2285 49.6484C85.9751 52.2617 85.4886 54.1597 84.5771 55.7422L84.3887 56.0547C83.3567 57.6971 81.9902 59.1015 80.3799 60.1777L80.0547 60.3887C78.4096 61.4225 76.4354 61.9572 73.6475 62.2275L73.6484 62.2285C70.8523 62.4997 67.2946 62.5 62.5 62.5C57.7054 62.5 54.1476 62.4997 51.3516 62.2285V62.2275C48.7383 61.9741 46.8402 61.4886 45.2578 60.5771L44.9453 60.3887C43.3027 59.3566 41.8976 57.9903 40.8213 56.3799L40.6104 56.0547C39.5772 54.4099 39.0415 52.4363 38.7715 49.6484L38.6826 48.5625C38.5008 45.943 38.5 42.6951 38.5 38.5C38.5 33.7054 38.5003 30.1476 38.7715 27.3516C39.0415 24.5637 39.5772 22.5901 40.6104 20.9453L40.8213 20.6201C41.8976 19.0095 43.3026 17.6425 44.9453 16.6104L45.2578 16.4229C46.8401 15.5117 48.7379 15.0256 51.3516 14.7725V14.7715C54.1473 14.5003 57.7051 14.5 62.5 14.5ZM62.5 26.5C55.8726 26.5 50.5 31.8726 50.5 38.5C50.5 45.1274 55.8726 50.5 62.5 50.5C69.1274 50.5 74.5 45.1274 74.5 38.5C74.5 31.8726 69.1274 26.5 62.5 26.5ZM62.5 29.5C67.4706 29.5 71.5 33.5294 71.5 38.5C71.5 43.4706 67.4706 47.5 62.5 47.5C57.5294 47.5 53.5 43.4706 53.5 38.5C53.5 33.5294 57.5294 29.5 62.5 29.5ZM76 22C74.3431 22 73 23.3431 73 25C73 26.6569 74.3431 28 76 28C77.6569 28 79 26.6569 79 25C79 23.3431 77.6569 22 76 22Z" fill="white"/>
</g>
<rect x="1.5" y="1.5" width="123" height="73" rx="36.5" stroke="white" stroke-width="3"/>
<g clip-path="url(#clip1_0_1)">
<path d="M62.5 14.5C67.2946 14.5 70.8524 14.5003 73.6484 14.7715L73.6475 14.7725C76.2615 15.0256 78.1598 15.5116 79.7422 16.4229L80.0547 16.6104C81.8066 17.7113 83.2879 19.1933 84.3887 20.9453L84.5771 21.2578C85.4886 22.8403 85.9751 24.7383 86.2285 27.3516L86.3174 28.4375C86.4992 31.057 86.5 34.3049 86.5 38.5C86.5 43.2946 86.4997 46.8524 86.2285 49.6484C85.9582 52.4361 85.4224 54.4097 84.3887 56.0547C83.2879 57.8066 81.8066 59.2879 80.0547 60.3887C78.4096 61.4225 76.4354 61.9572 73.6475 62.2275L73.6484 62.2285C70.8524 62.4997 67.2946 62.5 62.5 62.5C57.7054 62.5 54.1477 62.4997 51.3516 62.2285V62.2275C48.7383 61.9741 46.8402 61.4886 45.2578 60.5771L44.9453 60.3887C43.3027 59.3566 41.8976 57.9904 40.8213 56.3799L40.6104 56.0547C39.5772 54.4099 39.0415 52.4363 38.7715 49.6484L38.6826 48.5625C38.5008 45.943 38.5 42.6951 38.5 38.5C38.5 33.7054 38.5003 30.1477 38.7715 27.3516C39.0415 24.5637 39.5772 22.5901 40.6104 20.9453L40.8213 20.6201C41.8976 19.0095 43.3026 17.6425 44.9453 16.6104L45.2578 16.4229C46.8401 15.5117 48.7379 15.0256 51.3516 14.7725V14.7715C54.1473 14.5003 57.7051 14.5 62.5 14.5Z" fill="white"/>
<path d="M72.6877 36.4244C74.6366 37.5884 74.6366 40.4116 72.6877 41.5756L59.7883 49.2798C57.7886 50.4742 55.25 49.0334 55.25 46.7043V31.2957C55.25 28.9666 57.7886 27.5258 59.7883 28.7202L72.6877 36.4244Z" fill="#5D5D5D"/>
</g>
<defs>
<clipPath id="clip0_0_1">
<rect width="49" height="49" fill="white" transform="translate(38 14)"/>
</clipPath>
<clipPath id="clip1_0_1">
<rect width="49" height="49" fill="white" transform="translate(38 14)"/>
</clipPath>
</defs>
</svg>
