<svg width="126" height="76" viewBox="0 0 126 76" fill="none" xmlns="http://www.w3.org/2000/svg">
<rect x="1.5" y="1.5" width="123" height="73" rx="36.5" fill="white" stroke="white" stroke-width="3"/>
<path d="M62.5 14.5C67.2946 14.5 70.8524 14.5003 73.6484 14.7715L73.6475 14.7725C76.2615 15.0256 78.1598 15.5116 79.7422 16.4229L80.0547 16.6104C81.8066 17.7113 83.2879 19.1933 84.3887 20.9453L84.5771 21.2578C85.4886 22.8403 85.9751 24.7383 86.2285 27.3516L86.3174 28.4375C86.4992 31.057 86.5 34.3049 86.5 38.5C86.5 43.2946 86.4997 46.8524 86.2285 49.6484C85.9582 52.4361 85.4224 54.4097 84.3887 56.0547C83.2879 57.8066 81.8066 59.2879 80.0547 60.3887C78.4096 61.4225 76.4354 61.9572 73.6475 62.2275L73.6484 62.2285C70.8524 62.4997 67.2946 62.5 62.5 62.5C57.7054 62.5 54.1477 62.4997 51.3516 62.2285V62.2275C48.7383 61.9741 46.8402 61.4886 45.2578 60.5771L44.9453 60.3887C43.3027 59.3566 41.8976 57.9904 40.8213 56.3799L40.6104 56.0547C39.5772 54.4099 39.0415 52.4363 38.7715 49.6484L38.6826 48.5625C38.5008 45.943 38.5 42.6951 38.5 38.5C38.5 33.7054 38.5003 30.1477 38.7715 27.3516C39.0415 24.5637 39.5772 22.5901 40.6104 20.9453L40.8213 20.6201C41.8976 19.0095 43.3026 17.6425 44.9453 16.6104L45.2578 16.4229C46.8401 15.5117 48.7379 15.0256 51.3516 14.7725V14.7715C54.1473 14.5003 57.7051 14.5 62.5 14.5Z" fill="#5D5D5D"/>
<path d="M72.6877 35.4244C74.6366 36.5884 74.6366 39.4116 72.6877 40.5756L59.7883 48.2798C57.7886 49.4742 55.25 48.0334 55.25 45.7043V30.2957C55.25 27.9666 57.7886 26.5258 59.7883 27.7202L72.6877 35.4244Z" fill="white"/>
</svg>
