<svg width="126" height="76" viewBox="0 0 126 76" fill="none" xmlns="http://www.w3.org/2000/svg">
<rect x="1.5" y="1.5" width="123" height="73" rx="36.5" stroke="white" stroke-width="3"/>
<mask id="mask0_0_1" style="mask-type:alpha" maskUnits="userSpaceOnUse" x="37" y="13" width="50" height="50">
<rect x="37" y="13" width="50" height="50" rx="13" fill="#D9D9D9"/>
</mask>
<g mask="url(#mask0_0_1)">
<path d="M87.3 11H38.7C37.9839 11 37.2972 11.2845 36.7908 11.7908C36.2845 12.2972 36 12.9839 36 13.7V62.3C36 63.0161 36.2845 63.7028 36.7908 64.2092C37.2972 64.7155 37.9839 65 38.7 65H87.3C88.0161 65 88.7028 64.7155 89.2092 64.2092C89.7155 63.7028 90 63.0161 90 62.3V13.7C90 12.9839 89.7155 12.2972 89.2092 11.7908C88.7028 11.2845 88.0161 11 87.3 11ZM74.5479 37.6085C73.6137 43.4621 72.5985 49.8611 72.5985 49.8611C72.5985 49.8611 72.4419 51.6566 71.1162 51.9671C69.6959 51.9453 68.3232 51.4513 67.2147 50.5631C66.9015 50.3282 61.3611 46.8182 59.3334 45.101C59.1266 44.9614 58.9585 44.7717 58.8449 44.5495C58.7313 44.3274 58.6758 44.08 58.6836 43.8307C58.6914 43.5813 58.7623 43.3379 58.8896 43.1233C59.0169 42.9087 59.1966 42.7299 59.4117 42.6035C62.2197 40.0277 65.5758 36.8282 67.6035 34.8005C68.5404 33.8636 69.4773 31.6793 65.5758 34.3334C60.0354 38.1566 54.5733 41.7449 54.5733 41.7449C54.0107 41.9987 53.4028 42.1364 52.7858 42.1499C52.1688 42.1634 51.5554 42.0522 50.9823 41.8232C48.6414 41.1212 45.9117 40.1843 45.9117 40.1843C45.9117 40.1843 44.0379 39.0152 47.2374 37.7543C47.2374 37.7543 60.7374 32.2139 65.4192 30.2645C67.2147 29.4842 73.3005 26.9867 73.3005 26.9867C73.3005 26.9867 76.1112 25.8932 75.8763 28.5473C75.798 29.6516 75.1743 33.4748 74.5479 37.6085Z" fill="white"/>
</g>
</svg>
