<svg width="126" height="76" viewBox="0 0 126 76" fill="none" xmlns="http://www.w3.org/2000/svg">
<rect x="1.5" y="1.5" width="123" height="73" rx="36.5" fill="white" stroke="white" stroke-width="3"/>
<path fill-rule="evenodd" clip-rule="evenodd" d="M43.075 18.075C39.75 21.4317 39.75 26.7992 39.75 37.55V39.45C39.75 50.185 39.75 55.5525 43.075 58.925C46.4317 62.25 51.7992 62.25 62.55 62.25H64.45C75.185 62.25 80.5525 62.25 83.925 58.925C87.25 55.5684 87.25 50.2009 87.25 39.45V37.55C87.25 26.815 87.25 21.4475 83.925 18.075C80.5684 14.75 75.2009 14.75 64.45 14.75H62.55C51.815 14.75 46.4475 14.75 43.075 18.075ZM47.7617 29.2058C48.015 41.5559 54.19 48.9659 65.02 48.9659H65.6534V41.9041C69.6275 42.3 72.6359 45.2134 73.8391 48.9659H79.46C78.8836 46.8336 77.8614 44.8477 76.4613 43.1391C75.0613 41.4307 73.3149 40.0385 71.3375 39.0541C73.1095 37.9751 74.6399 36.542 75.8331 34.8449C77.0263 33.1477 77.8569 31.2226 78.2725 29.19H73.1741C72.0659 33.1167 68.7725 36.6791 65.6534 37.0116V29.2058H60.5391V42.8859C57.3725 42.0941 53.3825 38.2625 53.2083 29.2058H47.7617Z" fill="#5D5D5D"/>
</svg>
